# xmcd
#
# Track frame offsets:
#	150
#	19421
#	46882
#
# Disc length: 1378 seconds
#
# Revision: 0
# Processed by: cddbd v1.5.2PL0 Copyright (c) Steve Scherf et al.
# Submitted via: dBpowerAMP V4.0
#
DISCID=1e056003
DTITLE=Raul Malo - Today
DYEAR=2002
DGENRE=Country
TTITLE0=Today
TTITLE1=New York, New York
TTITLE2=DATA
EXTD=
EXTT0=
EXTT1=
EXTT2=
PLAYORDER=
